<?xml version="1.0" encoding="utf-8"?>
<!-- Generator: Adobe Illustrator 16.0.0, SVG Export Plug-In . SVG Version: 6.00 Build 0)  -->
<!DOCTYPE svg PUBLIC "-//W3C//DTD SVG 1.1//EN" "http://www.w3.org/Graphics/SVG/1.1/DTD/svg11.dtd">
<svg version="1.1" id="Capa_1" xmlns="http://www.w3.org/2000/svg" xmlns:xlink="http://www.w3.org/1999/xlink" x="0px" y="0px"
	 width="1200px" height="292px" viewBox="0 0 1200 292" style="enable-background:new 0 0 1200 292;" xml:space="preserve">
<style type="text/css">
<![CDATA[
	.st0{clip-path:url(#SVGID_2_);fill:#1247BD;}
]]>
</style>
<g>
	<defs>
		<path id="SVGID_1_" d="M1004.7,213.1h33.9V58h-33.9V213.1z M715.2,247v-48.6c0,0,6.8,6.5,20.4,6.5h59.2
			c23.3,0,30.3,12.1,30.3,28.2v16c0,22.9-12.6,31.2-32,31.2h-43.9C738,280.2,715.2,276,715.2,247 M715.6,112.6
			c0-24.5,7.1-43.4,36.6-43.4h37.7c17.4,0,28.8,14.3,29.1,43.4c0.2,19-8.5,40.2-37.4,40.2h-29.5C728,152.9,715.6,138.1,715.6,112.6
			 M754.2,57.4c-34,0-50.4,17.1-50.4,55.2c0,16.7,3.9,36,22.7,44.6c-15.4,1.2-22.4,12.3-22.4,21.3c0,5.3,1.3,11.3,5.3,15l-6.2,26.8
			V247c0,29.4,18.5,45,46,45h43.9c38.3,0,43.9-25.5,43.9-43v-16.5c0-23.5-14.4-39.3-40.9-39.3h-60.9c-7.6,0-19.6-3.9-19.6-14.2
			c0-12.7,16.7-14,21.4-14h45.6c41.5,0,48.3-34.7,48.3-52.3c0-29.6-10.4-38.8-14.9-43.4l29.6-3.7v-8.1H754.2z M918.6,68.8
			c33.6,0,47.1,3.5,47.1,43c0,16.6-12.6,19-27.8,19h-69.3C868.6,74.6,880.6,68.8,918.6,68.8 M856.6,134.8
			c0,58.4,11.1,79.5,50.9,79.8c24.3,0.3,43.6-1.5,67.3-8.2v-8.8c-21.9,3.2-40.4,5-67.3,5c-24.6,0-38.9-8.8-38.9-60.2h69.3
			c26,0,39.8-7.9,39.8-30.7c0-51.4-23.4-54.9-59.1-54.9C873.9,56.8,856.6,66.2,856.6,134.8 M1094,137.7c0-47.9,8.7-52.4,36-52.4
			c28,0,36,4.6,36,52.4c0,44.6-9.9,48.1-36,48.1C1105.2,185.8,1094,182.1,1094,137.7 M1060,137.7c0,55.5,16.8,76.8,70,76.8
			c53.6,0,70-19.3,70-76.8c0-61.6-16.9-81.2-70-81.2C1078.1,56.5,1060,74.3,1060,137.7 M324.4,76.1L320.3,58h-7.9v155.1h12V84.9
			c21.9-11.4,36.3-17.5,61.1-17.5c22.2,0,36,15.8,36,37.7v108.1h12V105c0-25.7-17-49.7-48-49.7C361.8,55.4,341.6,65.3,324.4,76.1
			 M203.7,202.9c-12.9-0.3-26.9-7-26.9-28v-15.8c0-14.9,7-26.6,26.9-27.5l68.7-3.5v58.2c0,0-44.6,16.6-68.1,16.6
			C204.1,202.9,203.9,202.9,203.7,202.9 M239.7,55.1c-29.2,0.3-51.8,4.4-69.9,9.1V72c27.2-3.5,48.6-5.8,69.6-5.6
			c24.6,0.3,33.1,14.3,33.1,33.6c0.3,0.3,0,19.6,0,19.6c0,0.3-68.7,0-68.7,0c-24,0-38.9,14.6-38.9,38.9v17.8
			c0,24.8,17.5,38.6,38.9,38.6c28.1,0,80.7-24.7,80.7-24.7v-90.1c0-31.8-20-45-44-45C240.2,55.1,239.9,55.1,239.7,55.1 M594.9,202.9
			c-12.9-0.3-26.9-7-26.9-28v-15.8c0-14.9,7-26.6,26.9-27.5l68.7-3.5v58.2c0,0-44.6,16.6-68.1,16.6
			C595.3,202.9,595.1,202.9,594.9,202.9 M630.9,55.1c-29.2,0.3-51.8,4.4-69.9,9.1V72c27.2-3.5,48.6-5.8,69.6-5.6
			c24.6,0.3,33.1,14.3,33.1,33.6c0.3,0.3,0,19.6,0,19.6c0,0.3-68.7,0-68.7,0c-24,0-38.9,14.6-38.9,38.9v17.8
			c0,24.8,17.6,38.6,38.9,38.6c28.1,0,80.7-24.7,80.7-24.7v-90.1c0-31.8-20-45-43.9-45C631.4,55.1,631.2,55.1,630.9,55.1
			 M479.1,14.4l-3.2,43.2l-26,3.2v8.8h26v88.2c0,39.4,12.9,55.2,36.9,55.2h21.6v-7.9c-2,0-23.1-4.1-23.1-4.1
			c-9.1-1.5-23.4-4.4-23.4-43.2V69.7H537v-12h-49.1V14.4H479.1z M156.5,0.1L83.1,197.6L12.9,0.1H0L76,214h13.7L169.7,0.1H156.5z
			 M1004.6,33.9h33.9V0h-33.9V33.9z"/>
	</defs>
	<use xlink:href="#SVGID_1_"  style="overflow:visible;fill:#1247BD;"/>
	<clipPath id="SVGID_2_">
		<use xlink:href="#SVGID_1_"  style="overflow:visible;"/>
	</clipPath>
	<polygon class="st0" points="-143.9,171.4 495.8,-590.2 1343.9,120.6 704.2,882.2 	"/>
</g>
</svg>
