<svg viewBox="0 0 210 115" fill="none" xmlns="http://www.w3.org/2000/svg" style="opacity: 1; transform: translateX(0px) rotate(0deg);"><path d="M120.525 107.968L120.24 107.009L120.525 107.968ZM204.676 0.512695C204.407 0.0304247 203.798 -0.142355 203.315 0.126781L195.456 4.5126C194.974 4.78174 194.801 5.39088 195.07 5.87315C195.339 6.35542 195.949 6.52819 196.431 6.25906L203.417 2.36055L207.315 9.34636C207.584 9.82863 208.193 10.0014 208.676 9.73228C209.158 9.46314 209.331 8.85401 209.062 8.37174L204.676 0.512695ZM0.101221 71.236C1.43894 73.6506 3.00441 76.0295 4.77984 78.3532L6.36907 77.139C4.64887 74.8876 3.13788 72.5902 1.85068 70.2667L0.101221 71.236ZM16.6141 90.5097C20.7998 93.9664 25.4937 97.1723 30.6177 100.035L31.5932 98.2894C26.5695 95.4824 21.976 92.3439 17.8877 88.9676L16.6141 90.5097ZM46.0021 107.072C51.1617 108.961 56.6007 110.517 62.2665 111.678L62.6681 109.719C57.0999 108.578 51.7564 107.048 46.6895 105.194L46.0021 107.072ZM79.0245 113.865C84.5267 114.184 90.1753 114.126 95.9307 113.642L95.7633 111.649C90.1034 112.125 84.5494 112.182 79.1402 111.869L79.0245 113.865ZM112.623 111.065C115.339 110.453 118.069 109.741 120.81 108.926L120.24 107.009C117.542 107.811 114.855 108.512 112.183 109.114L112.623 111.065ZM120.81 108.926C123.176 108.223 125.473 107.468 127.703 106.667L127.027 104.784C124.832 105.573 122.57 106.316 120.24 107.009L120.81 108.926ZM141.051 100.944C145.541 98.6791 149.703 96.2043 153.562 93.562L152.432 91.9118C148.646 94.504 144.561 96.9336 140.15 99.1586L141.051 100.944ZM164.935 84.5582C168.629 81.1908 171.961 77.6661 174.97 74.0473L173.432 72.7686C170.479 76.32 167.21 79.7777 163.588 83.0802L164.935 84.5582ZM183.494 62.2996C186.168 58.0663 188.481 53.7992 190.487 49.5899L188.682 48.7293C186.706 52.8738 184.431 57.0709 181.803 61.2315L183.494 62.2996ZM196.016 36.1881C197.755 31.2727 199.119 26.5952 200.212 22.3277L198.274 21.8317C197.194 26.0521 195.846 30.6714 194.131 35.521L196.016 36.1881ZM203.308 8.22809C203.922 5.05514 204.36 2.69926 204.765 1.27289L202.841 0.727126C202.406 2.2602 201.946 4.7385 201.345 7.84853L203.308 8.22809Z" fill="#000"></path></svg>