<svg width="1410" height="300" viewBox="0 0 1410 300" fill="none" xmlns="http://www.w3.org/2000/svg">
<rect width="300" height="300" rx="30" fill="#A4CAFE"/>
<path d="M208.542 191.666H199.25C199.708 188.95 200 186.175 200 183.333V175H216.667C221.267 175 225 171.267 225 166.667C225 162.066 221.267 158.333 216.667 158.333H199.25C198.767 155.467 198.042 152.683 197.083 150H200.208C209.4 150 216.875 142.525 216.875 133.333V116.667C216.875 112.067 213.142 108.333 208.542 108.333C203.942 108.333 200.208 112.067 200.208 116.667V133.333H187.167C185.958 131.992 184.675 130.708 183.333 129.5V116.667C183.333 108.358 180.167 100.842 175.117 94.9998L180.892 89.2248C182.458 87.6665 183.333 85.5415 183.333 83.3332V74.9998C183.333 70.3998 179.6 66.6665 175 66.6665C170.4 66.6665 166.667 70.3998 166.667 74.9998V79.8832L161.158 85.3915C157.65 84.1415 153.933 83.3332 150 83.3332C146.067 83.3332 142.35 84.1415 138.842 85.3915L133.333 79.8832V74.9998C133.333 70.3998 129.6 66.6665 125 66.6665C120.4 66.6665 116.667 70.3998 116.667 74.9998V83.3332C116.667 85.5415 117.542 87.6665 119.108 89.2248L124.883 94.9998C119.833 100.842 116.667 108.358 116.667 116.667V129.5C115.325 130.708 114.042 131.992 112.833 133.333H100V116.667C100 112.067 96.2667 108.333 91.6667 108.333C87.0667 108.333 83.3333 112.067 83.3333 116.667V133.333C83.3333 142.525 90.8083 150 100 150H102.917C101.967 152.683 101.233 155.467 100.75 158.333H83.3333C78.7333 158.333 75 162.066 75 166.667C75 171.267 78.7333 175 83.3333 175H100V183.333C100 186.175 100.292 188.95 100.75 191.666H91.6667C82.475 191.666 75 199.142 75 208.333V225C75 229.6 78.7333 233.333 83.3333 233.333C87.9333 233.333 91.6667 229.6 91.6667 225V208.333H106.767C115.425 223.25 131.542 233.333 150 233.333C168.458 233.333 184.575 223.25 193.233 208.333H208.542V225C208.542 229.6 212.275 233.333 216.875 233.333C221.475 233.333 225.208 229.6 225.208 225V208.333C225.208 199.142 217.733 191.666 208.542 191.666ZM133.333 116.667C133.333 107.475 140.808 99.9998 150 99.9998C159.192 99.9998 166.667 107.475 166.667 116.667V119.583C164.133 118.683 161.525 117.975 158.825 117.492C158.517 117.433 158.208 117.4 157.9 117.35C155.317 116.942 152.692 116.667 150 116.667C147.308 116.667 144.683 116.942 142.1 117.35C141.792 117.4 141.483 117.433 141.175 117.492C138.475 117.975 135.867 118.683 133.333 119.583V116.667ZM116.667 183.333V166.667C116.667 159.55 118.95 152.983 122.767 147.558C124.8 144.666 127.317 142.166 130.15 140.05C130.167 140.033 130.192 140.033 130.208 140.017C131.575 139 133.008 138.133 134.475 137.35C134.658 137.25 134.833 137.15 135.017 137.058C136.442 136.333 137.908 135.725 139.4 135.225C139.65 135.142 139.908 135.067 140.158 134.992C140.658 134.833 141.167 134.758 141.667 134.625V215.483C127.333 211.758 116.667 198.816 116.667 183.333ZM158.333 215.483V134.625C158.833 134.758 159.342 134.833 159.842 134.992C160.1 135.075 160.358 135.142 160.608 135.233C162.1 135.741 163.567 136.342 164.992 137.067C165.175 137.158 165.35 137.267 165.533 137.358C167 138.141 168.433 139.008 169.8 140.025C169.817 140.033 169.833 140.041 169.85 140.05C177.983 146.133 183.333 155.75 183.333 166.667V183.333C183.333 198.816 172.667 211.758 158.333 215.483Z" fill="#3F83F8"/>
<path d="M531.754 255V202.636H566.424V211.764H542.825V224.241H564.123V233.369H542.825V255H531.754ZM596.39 238.278V215.727H607.282V255H596.825V247.866H596.415C595.529 250.168 594.055 252.017 591.992 253.415C589.947 254.812 587.45 255.511 584.501 255.511C581.876 255.511 579.566 254.915 577.572 253.722C575.577 252.528 574.018 250.832 572.893 248.634C571.785 246.435 571.222 243.801 571.205 240.733V215.727H582.097V238.79C582.114 241.108 582.737 242.94 583.964 244.287C585.191 245.634 586.836 246.307 588.898 246.307C590.211 246.307 591.438 246.009 592.58 245.412C593.722 244.798 594.643 243.895 595.342 242.702C596.058 241.509 596.407 240.034 596.39 238.278ZM626.886 202.636V255H615.994V202.636H626.886ZM646.504 202.636V255H635.612V202.636H646.504ZM683.839 217.696C683.635 215.634 682.757 214.031 681.206 212.889C679.655 211.747 677.55 211.176 674.891 211.176C673.084 211.176 671.558 211.432 670.314 211.943C669.07 212.438 668.115 213.128 667.45 214.014C666.803 214.901 666.479 215.906 666.479 217.031C666.445 217.969 666.641 218.787 667.067 219.486C667.51 220.185 668.115 220.79 668.882 221.301C669.649 221.795 670.536 222.23 671.541 222.605C672.547 222.963 673.621 223.27 674.763 223.526L679.467 224.651C681.751 225.162 683.848 225.844 685.757 226.696C687.666 227.548 689.32 228.597 690.717 229.841C692.115 231.085 693.197 232.551 693.964 234.239C694.749 235.926 695.149 237.861 695.166 240.043C695.149 243.247 694.331 246.026 692.712 248.378C691.109 250.713 688.791 252.528 685.757 253.824C682.74 255.102 679.101 255.741 674.839 255.741C670.612 255.741 666.93 255.094 663.794 253.798C660.675 252.503 658.237 250.585 656.482 248.045C654.743 245.489 653.831 242.327 653.746 238.56H664.459C664.578 240.315 665.081 241.781 665.967 242.957C666.871 244.116 668.072 244.994 669.572 245.591C671.089 246.17 672.803 246.46 674.712 246.46C676.587 246.46 678.214 246.187 679.595 245.642C680.993 245.097 682.075 244.338 682.842 243.366C683.609 242.395 683.993 241.278 683.993 240.017C683.993 238.841 683.643 237.852 682.945 237.051C682.263 236.25 681.257 235.568 679.928 235.006C678.615 234.443 677.004 233.932 675.095 233.472L669.393 232.04C664.979 230.966 661.493 229.287 658.936 227.003C656.379 224.719 655.109 221.642 655.126 217.773C655.109 214.602 655.953 211.832 657.658 209.463C659.379 207.094 661.74 205.244 664.74 203.915C667.74 202.585 671.149 201.92 674.967 201.92C678.854 201.92 682.246 202.585 685.143 203.915C688.058 205.244 690.325 207.094 691.945 209.463C693.564 211.832 694.399 214.577 694.45 217.696H683.839ZM723.298 215.727V223.909H699.647V215.727H723.298ZM705.016 206.318H715.908V242.932C715.908 243.937 716.062 244.722 716.369 245.284C716.675 245.83 717.102 246.213 717.647 246.435C718.21 246.656 718.857 246.767 719.59 246.767C720.102 246.767 720.613 246.724 721.124 246.639C721.636 246.537 722.028 246.46 722.3 246.409L724.014 254.514C723.468 254.685 722.701 254.881 721.712 255.102C720.724 255.341 719.522 255.486 718.107 255.537C715.482 255.639 713.181 255.29 711.204 254.489C709.244 253.687 707.718 252.443 706.627 250.756C705.536 249.068 704.999 246.937 705.016 244.364V206.318ZM741.592 255.741C739.086 255.741 736.853 255.307 734.893 254.438C732.933 253.551 731.381 252.247 730.239 250.526C729.114 248.787 728.552 246.622 728.552 244.031C728.552 241.849 728.952 240.017 729.754 238.534C730.555 237.051 731.646 235.858 733.026 234.955C734.407 234.051 735.975 233.369 737.731 232.909C739.504 232.449 741.362 232.125 743.305 231.938C745.589 231.699 747.43 231.477 748.827 231.273C750.225 231.051 751.239 230.727 751.87 230.301C752.501 229.875 752.816 229.244 752.816 228.409V228.256C752.816 226.636 752.305 225.384 751.282 224.497C750.276 223.611 748.844 223.168 746.987 223.168C745.026 223.168 743.467 223.602 742.308 224.472C741.148 225.324 740.381 226.398 740.006 227.693L729.933 226.875C730.444 224.489 731.45 222.426 732.95 220.688C734.45 218.932 736.384 217.585 738.754 216.648C741.14 215.693 743.901 215.216 747.038 215.216C749.219 215.216 751.308 215.472 753.302 215.983C755.313 216.494 757.094 217.287 758.646 218.361C760.214 219.435 761.45 220.815 762.353 222.503C763.256 224.173 763.708 226.176 763.708 228.511V255H753.379V249.554H753.072C752.441 250.781 751.597 251.864 750.54 252.801C749.484 253.722 748.214 254.446 746.731 254.974C745.248 255.486 743.535 255.741 741.592 255.741ZM744.711 248.224C746.313 248.224 747.728 247.909 748.955 247.278C750.183 246.631 751.146 245.761 751.844 244.67C752.543 243.58 752.893 242.344 752.893 240.963V236.795C752.552 237.017 752.083 237.222 751.487 237.409C750.907 237.58 750.251 237.741 749.518 237.895C748.785 238.031 748.052 238.159 747.319 238.278C746.586 238.381 745.921 238.474 745.325 238.56C744.046 238.747 742.93 239.045 741.975 239.455C741.021 239.864 740.279 240.418 739.751 241.116C739.222 241.798 738.958 242.651 738.958 243.673C738.958 245.156 739.495 246.29 740.569 247.074C741.66 247.841 743.04 248.224 744.711 248.224ZM789.903 255.767C785.88 255.767 782.42 254.915 779.522 253.21C776.641 251.489 774.425 249.102 772.874 246.051C771.34 243 770.573 239.489 770.573 235.517C770.573 231.494 771.349 227.966 772.9 224.932C774.468 221.881 776.692 219.503 779.573 217.798C782.454 216.077 785.88 215.216 789.852 215.216C793.278 215.216 796.278 215.838 798.852 217.082C801.425 218.327 803.462 220.074 804.962 222.324C806.462 224.574 807.289 227.216 807.442 230.25H797.164C796.874 228.29 796.107 226.713 794.863 225.52C793.636 224.31 792.025 223.705 790.031 223.705C788.343 223.705 786.869 224.165 785.607 225.085C784.363 225.989 783.391 227.31 782.692 229.048C781.994 230.787 781.644 232.892 781.644 235.364C781.644 237.869 781.985 240 782.667 241.756C783.366 243.511 784.346 244.849 785.607 245.77C786.869 246.69 788.343 247.151 790.031 247.151C791.275 247.151 792.391 246.895 793.38 246.384C794.386 245.872 795.212 245.131 795.86 244.159C796.525 243.17 796.96 241.986 797.164 240.605H807.442C807.272 243.605 806.454 246.247 804.988 248.531C803.539 250.798 801.536 252.571 798.979 253.849C796.423 255.128 793.397 255.767 789.903 255.767ZM824.286 243.699L824.311 230.634H825.896L838.476 215.727H850.979L834.078 235.466H831.496L824.286 243.699ZM814.416 255V202.636H825.308V255H814.416ZM838.962 255L827.405 237.895L834.666 230.199L851.72 255H838.962ZM891.754 255H873.191V202.636H891.907C897.174 202.636 901.708 203.685 905.509 205.781C909.31 207.861 912.234 210.852 914.279 214.756C916.342 218.659 917.373 223.33 917.373 228.767C917.373 234.222 916.342 238.909 914.279 242.83C912.234 246.75 909.293 249.759 905.458 251.855C901.64 253.952 897.072 255 891.754 255ZM884.262 245.514H891.293C894.566 245.514 897.319 244.935 899.552 243.776C901.802 242.599 903.489 240.784 904.614 238.33C905.756 235.858 906.327 232.67 906.327 228.767C906.327 224.898 905.756 221.736 904.614 219.281C903.489 216.827 901.81 215.02 899.577 213.861C897.344 212.702 894.592 212.122 891.319 212.122H884.262V245.514ZM943.267 255.767C939.227 255.767 935.75 254.949 932.835 253.312C929.938 251.659 927.705 249.324 926.136 246.307C924.568 243.273 923.784 239.685 923.784 235.543C923.784 231.503 924.568 227.957 926.136 224.906C927.705 221.855 929.912 219.477 932.759 217.773C935.622 216.068 938.98 215.216 942.832 215.216C945.423 215.216 947.835 215.634 950.068 216.469C952.318 217.287 954.278 218.523 955.949 220.176C957.636 221.83 958.949 223.909 959.886 226.415C960.824 228.903 961.293 231.818 961.293 235.159V238.151H928.131V231.401H951.04C951.04 229.832 950.699 228.443 950.017 227.233C949.335 226.023 948.389 225.077 947.179 224.395C945.986 223.696 944.597 223.347 943.011 223.347C941.358 223.347 939.892 223.73 938.614 224.497C937.352 225.247 936.364 226.261 935.648 227.54C934.932 228.801 934.565 230.207 934.548 231.759V238.176C934.548 240.119 934.906 241.798 935.622 243.213C936.355 244.628 937.386 245.719 938.716 246.486C940.045 247.253 941.622 247.636 943.446 247.636C944.656 247.636 945.764 247.466 946.77 247.125C947.776 246.784 948.636 246.273 949.352 245.591C950.068 244.909 950.614 244.074 950.989 243.085L961.063 243.75C960.551 246.17 959.503 248.284 957.918 250.091C956.349 251.881 954.321 253.278 951.832 254.284C949.361 255.273 946.506 255.767 943.267 255.767ZM1003.96 215.727L990.229 255H977.957L964.227 215.727H975.732L983.889 243.827H984.298L992.428 215.727H1003.96ZM1026.17 255.767C1022.13 255.767 1018.65 254.949 1015.73 253.312C1012.84 251.659 1010.6 249.324 1009.03 246.307C1007.47 243.273 1006.68 239.685 1006.68 235.543C1006.68 231.503 1007.47 227.957 1009.03 224.906C1010.6 221.855 1012.81 219.477 1015.66 217.773C1018.52 216.068 1021.88 215.216 1025.73 215.216C1028.32 215.216 1030.73 215.634 1032.97 216.469C1035.22 217.287 1037.18 218.523 1038.85 220.176C1040.53 221.83 1041.85 223.909 1042.78 226.415C1043.72 228.903 1044.19 231.818 1044.19 235.159V238.151H1011.03V231.401H1033.94C1033.94 229.832 1033.6 228.443 1032.92 227.233C1032.23 226.023 1031.29 225.077 1030.08 224.395C1028.88 223.696 1027.5 223.347 1025.91 223.347C1024.26 223.347 1022.79 223.73 1021.51 224.497C1020.25 225.247 1019.26 226.261 1018.55 227.54C1017.83 228.801 1017.46 230.207 1017.45 231.759V238.176C1017.45 240.119 1017.8 241.798 1018.52 243.213C1019.25 244.628 1020.28 245.719 1021.61 246.486C1022.94 247.253 1024.52 247.636 1026.34 247.636C1027.55 247.636 1028.66 247.466 1029.67 247.125C1030.67 246.784 1031.53 246.273 1032.25 245.591C1032.97 244.909 1033.51 244.074 1033.89 243.085L1043.96 243.75C1043.45 246.17 1042.4 248.284 1040.82 250.091C1039.25 251.881 1037.22 253.278 1034.73 254.284C1032.26 255.273 1029.4 255.767 1026.17 255.767ZM1062.19 202.636V255H1051.3V202.636H1062.19ZM1088.66 255.767C1084.69 255.767 1081.25 254.923 1078.36 253.236C1075.48 251.531 1073.25 249.162 1071.68 246.128C1070.12 243.077 1069.33 239.54 1069.33 235.517C1069.33 231.46 1070.12 227.915 1071.68 224.881C1073.25 221.83 1075.48 219.46 1078.36 217.773C1081.25 216.068 1084.69 215.216 1088.66 215.216C1092.63 215.216 1096.06 216.068 1098.94 217.773C1101.84 219.46 1104.07 221.83 1105.64 224.881C1107.21 227.915 1107.99 231.46 1107.99 235.517C1107.99 239.54 1107.21 243.077 1105.64 246.128C1104.07 249.162 1101.84 251.531 1098.94 253.236C1096.06 254.923 1092.63 255.767 1088.66 255.767ZM1088.71 247.33C1090.52 247.33 1092.03 246.818 1093.24 245.795C1094.45 244.756 1095.36 243.341 1095.97 241.551C1096.6 239.761 1096.92 237.724 1096.92 235.44C1096.92 233.156 1096.6 231.119 1095.97 229.33C1095.36 227.54 1094.45 226.125 1093.24 225.085C1092.03 224.045 1090.52 223.526 1088.71 223.526C1086.89 223.526 1085.35 224.045 1084.11 225.085C1082.88 226.125 1081.95 227.54 1081.32 229.33C1080.71 231.119 1080.4 233.156 1080.4 235.44C1080.4 237.724 1080.71 239.761 1081.32 241.551C1081.95 243.341 1082.88 244.756 1084.11 245.795C1085.35 246.818 1086.89 247.33 1088.71 247.33ZM1115.07 269.727V215.727H1125.81V222.324H1126.3C1126.77 221.267 1127.46 220.193 1128.37 219.102C1129.29 217.994 1130.48 217.074 1131.95 216.341C1133.43 215.591 1135.27 215.216 1137.47 215.216C1140.33 215.216 1142.98 215.966 1145.4 217.466C1147.82 218.949 1149.75 221.19 1151.2 224.19C1152.65 227.173 1153.37 230.915 1153.37 235.415C1153.37 239.795 1152.67 243.494 1151.25 246.511C1149.85 249.511 1147.94 251.787 1145.52 253.338C1143.12 254.872 1140.43 255.639 1137.44 255.639C1135.33 255.639 1133.53 255.29 1132.05 254.591C1130.58 253.892 1129.38 253.014 1128.44 251.957C1127.51 250.884 1126.79 249.801 1126.3 248.71H1125.96V269.727H1115.07ZM1125.73 235.364C1125.73 237.699 1126.06 239.736 1126.71 241.474C1127.35 243.213 1128.29 244.568 1129.52 245.54C1130.75 246.494 1132.24 246.972 1133.99 246.972C1135.77 246.972 1137.27 246.486 1138.49 245.514C1139.72 244.526 1140.65 243.162 1141.28 241.423C1141.93 239.668 1142.25 237.648 1142.25 235.364C1142.25 233.097 1141.94 231.102 1141.31 229.381C1140.67 227.659 1139.75 226.312 1138.52 225.341C1137.29 224.369 1135.78 223.884 1133.99 223.884C1132.22 223.884 1130.72 224.352 1129.49 225.29C1128.28 226.227 1127.35 227.557 1126.71 229.278C1126.06 231 1125.73 233.028 1125.73 235.364ZM1178.53 255.767C1174.49 255.767 1171.02 254.949 1168.1 253.312C1165.2 251.659 1162.97 249.324 1161.4 246.307C1159.83 243.273 1159.05 239.685 1159.05 235.543C1159.05 231.503 1159.83 227.957 1161.4 224.906C1162.97 221.855 1165.18 219.477 1168.02 217.773C1170.89 216.068 1174.25 215.216 1178.1 215.216C1180.69 215.216 1183.1 215.634 1185.33 216.469C1187.58 217.287 1189.54 218.523 1191.21 220.176C1192.9 221.83 1194.21 223.909 1195.15 226.415C1196.09 228.903 1196.56 231.818 1196.56 235.159V238.151H1163.4V231.401H1186.31C1186.31 229.832 1185.96 228.443 1185.28 227.233C1184.6 226.023 1183.65 225.077 1182.44 224.395C1181.25 223.696 1179.86 223.347 1178.28 223.347C1176.62 223.347 1175.16 223.73 1173.88 224.497C1172.62 225.247 1171.63 226.261 1170.91 227.54C1170.2 228.801 1169.83 230.207 1169.81 231.759V238.176C1169.81 240.119 1170.17 241.798 1170.89 243.213C1171.62 244.628 1172.65 245.719 1173.98 246.486C1175.31 247.253 1176.89 247.636 1178.71 247.636C1179.92 247.636 1181.03 247.466 1182.04 247.125C1183.04 246.784 1183.9 246.273 1184.62 245.591C1185.33 244.909 1185.88 244.074 1186.25 243.085L1196.33 243.75C1195.82 246.17 1194.77 248.284 1193.18 250.091C1191.62 251.881 1189.59 253.278 1187.1 254.284C1184.63 255.273 1181.77 255.767 1178.53 255.767ZM1203.67 255V215.727H1214.23V222.58H1214.63C1215.35 220.142 1216.55 218.301 1218.24 217.057C1219.93 215.795 1221.87 215.165 1224.07 215.165C1224.62 215.165 1225.2 215.199 1225.83 215.267C1226.46 215.335 1227.02 215.429 1227.5 215.548V225.213C1226.98 225.06 1226.28 224.923 1225.37 224.804C1224.47 224.685 1223.64 224.625 1222.89 224.625C1221.29 224.625 1219.86 224.974 1218.6 225.673C1217.35 226.355 1216.37 227.31 1215.63 228.537C1214.92 229.764 1214.56 231.179 1214.56 232.781V255H1203.67Z" fill="#A4CAFE"/>
<path d="M400.489 66.9091H425.398V130.727C425.367 136.788 423.837 142.121 420.807 146.727C417.807 151.303 413.655 154.879 408.352 157.455C403.08 160 397.004 161.273 390.125 161.273C384.155 161.273 378.701 160.242 373.761 158.182C368.822 156.091 364.883 152.818 361.943 148.364C359.004 143.879 357.549 138.061 357.58 130.909H382.852C382.943 133.242 383.337 135.212 384.034 136.818C384.761 138.424 385.761 139.636 387.034 140.455C388.337 141.242 389.913 141.636 391.761 141.636C393.64 141.636 395.216 141.227 396.489 140.409C397.792 139.591 398.777 138.379 399.443 136.773C400.11 135.136 400.458 133.121 400.489 130.727V66.9091ZM471.193 161.273C463.739 161.273 457.314 159.848 451.92 157C446.557 154.121 442.42 150 439.511 144.636C436.633 139.242 435.193 132.788 435.193 125.273C435.193 118.061 436.648 111.758 439.557 106.364C442.466 100.97 446.572 96.7727 451.875 93.7727C457.178 90.7727 463.436 89.2727 470.648 89.2727C475.92 89.2727 480.693 90.0909 484.966 91.7273C489.239 93.3636 492.89 95.7424 495.92 98.8636C498.951 101.955 501.284 105.712 502.92 110.136C504.557 114.561 505.375 119.545 505.375 125.091V130.909H443.011V117.091H482.284C482.254 115.091 481.739 113.333 480.739 111.818C479.769 110.273 478.451 109.076 476.784 108.227C475.148 107.348 473.284 106.909 471.193 106.909C469.163 106.909 467.299 107.348 465.602 108.227C463.905 109.076 462.542 110.258 461.511 111.773C460.511 113.288 459.981 115.061 459.92 117.091V132C459.92 134.242 460.39 136.242 461.33 138C462.269 139.758 463.617 141.136 465.375 142.136C467.133 143.136 469.254 143.636 471.739 143.636C473.466 143.636 475.042 143.394 476.466 142.909C477.92 142.424 479.163 141.727 480.193 140.818C481.223 139.879 481.981 138.758 482.466 137.455H505.375C504.587 142.303 502.723 146.515 499.784 150.091C496.845 153.636 492.951 156.394 488.102 158.364C483.284 160.303 477.648 161.273 471.193 161.273ZM579.432 112.909H556.341C556.22 111.485 555.72 110.258 554.841 109.227C553.962 108.197 552.826 107.409 551.432 106.864C550.068 106.288 548.553 106 546.886 106C544.735 106 542.886 106.394 541.341 107.182C539.795 107.97 539.038 109.091 539.068 110.545C539.038 111.576 539.477 112.53 540.386 113.409C541.326 114.288 543.129 114.97 545.795 115.455L559.977 118C567.129 119.303 572.447 121.5 575.932 124.591C579.447 127.652 581.22 131.758 581.25 136.909C581.22 141.879 579.735 146.197 576.795 149.864C573.886 153.5 569.902 156.318 564.841 158.318C559.811 160.288 554.068 161.273 547.614 161.273C536.947 161.273 528.598 159.091 522.568 154.727C516.568 150.364 513.22 144.606 512.523 137.455H537.432C537.765 139.667 538.856 141.379 540.705 142.591C542.583 143.773 544.947 144.364 547.795 144.364C550.098 144.364 551.992 143.97 553.477 143.182C554.992 142.394 555.765 141.273 555.795 139.818C555.765 138.485 555.098 137.424 553.795 136.636C552.523 135.848 550.523 135.212 547.795 134.727L535.432 132.545C528.311 131.303 522.977 128.939 519.432 125.455C515.886 121.97 514.129 117.485 514.159 112C514.129 107.152 515.402 103.045 517.977 99.6818C520.583 96.2879 524.295 93.7121 529.114 91.9545C533.962 90.1667 539.705 89.2727 546.341 89.2727C556.432 89.2727 564.386 91.3636 570.205 95.5455C576.053 99.7273 579.129 105.515 579.432 112.909ZM636.136 129.455V90.1818H661.227V160H637.409V146.727H636.682C635.167 151.182 632.515 154.667 628.727 157.182C624.939 159.667 620.439 160.909 615.227 160.909C610.348 160.909 606.076 159.788 602.409 157.545C598.773 155.303 595.939 152.212 593.909 148.273C591.909 144.333 590.894 139.818 590.864 134.727V90.1818H615.955V129.455C615.985 132.909 616.864 135.621 618.591 137.591C620.348 139.561 622.803 140.545 625.955 140.545C628.045 140.545 629.848 140.106 631.364 139.227C632.909 138.318 634.091 137.045 634.909 135.409C635.758 133.742 636.167 131.758 636.136 129.455ZM737.807 112.909H714.716C714.595 111.485 714.095 110.258 713.216 109.227C712.337 108.197 711.201 107.409 709.807 106.864C708.443 106.288 706.928 106 705.261 106C703.11 106 701.261 106.394 699.716 107.182C698.17 107.97 697.413 109.091 697.443 110.545C697.413 111.576 697.852 112.53 698.761 113.409C699.701 114.288 701.504 114.97 704.17 115.455L718.352 118C725.504 119.303 730.822 121.5 734.307 124.591C737.822 127.652 739.595 131.758 739.625 136.909C739.595 141.879 738.11 146.197 735.17 149.864C732.261 153.5 728.277 156.318 723.216 158.318C718.186 160.288 712.443 161.273 705.989 161.273C695.322 161.273 686.973 159.091 680.943 154.727C674.943 150.364 671.595 144.606 670.898 137.455H695.807C696.14 139.667 697.231 141.379 699.08 142.591C700.958 143.773 703.322 144.364 706.17 144.364C708.473 144.364 710.367 143.97 711.852 143.182C713.367 142.394 714.14 141.273 714.17 139.818C714.14 138.485 713.473 137.424 712.17 136.636C710.898 135.848 708.898 135.212 706.17 134.727L693.807 132.545C686.686 131.303 681.352 128.939 677.807 125.455C674.261 121.97 672.504 117.485 672.534 112C672.504 107.152 673.777 103.045 676.352 99.6818C678.958 96.2879 682.67 93.7121 687.489 91.9545C692.337 90.1667 698.08 89.2727 704.716 89.2727C714.807 89.2727 722.761 91.3636 728.58 95.5455C734.428 99.7273 737.504 105.515 737.807 112.909ZM864.557 113.455C864.557 123.818 862.542 132.561 858.511 139.682C854.481 146.773 849.042 152.152 842.193 155.818C835.345 159.455 827.708 161.273 819.284 161.273C810.799 161.273 803.133 159.439 796.284 155.773C789.466 152.076 784.042 146.682 780.011 139.591C776.011 132.47 774.011 123.758 774.011 113.455C774.011 103.091 776.011 94.3636 780.011 87.2727C784.042 80.1515 789.466 74.7727 796.284 71.1364C803.133 67.4697 810.799 65.6364 819.284 65.6364C827.708 65.6364 835.345 67.4697 842.193 71.1364C849.042 74.7727 854.481 80.1515 858.511 87.2727C862.542 94.3636 864.557 103.091 864.557 113.455ZM838.557 113.455C838.557 107.879 837.814 103.182 836.33 99.3636C834.875 95.5151 832.708 92.6061 829.83 90.6364C826.981 88.6364 823.466 87.6364 819.284 87.6364C815.102 87.6364 811.572 88.6364 808.693 90.6364C805.845 92.6061 803.678 95.5151 802.193 99.3636C800.739 103.182 800.011 107.879 800.011 113.455C800.011 119.03 800.739 123.742 802.193 127.591C803.678 131.409 805.845 134.318 808.693 136.318C811.572 138.288 815.102 139.273 819.284 139.273C823.466 139.273 826.981 138.288 829.83 136.318C832.708 134.318 834.875 131.409 836.33 127.591C837.814 123.742 838.557 119.03 838.557 113.455ZM876.614 160V90.1818H900.977V103.455H901.705C902.977 98.5455 904.992 94.9545 907.75 92.6818C910.538 90.4091 913.795 89.2727 917.523 89.2727C918.614 89.2727 919.689 89.3636 920.75 89.5455C921.841 89.697 922.886 89.9242 923.886 90.2273V111.636C922.644 111.212 921.114 110.894 919.295 110.682C917.477 110.47 915.917 110.364 914.614 110.364C912.159 110.364 909.947 110.924 907.977 112.045C906.038 113.136 904.508 114.682 903.386 116.682C902.265 118.652 901.705 120.97 901.705 123.636V160H876.614ZM961.568 161.273C954.114 161.273 947.689 159.848 942.295 157C936.932 154.121 932.795 150 929.886 144.636C927.008 139.242 925.568 132.788 925.568 125.273C925.568 118.061 927.023 111.758 929.932 106.364C932.841 100.97 936.947 96.7727 942.25 93.7727C947.553 90.7727 953.811 89.2727 961.023 89.2727C966.295 89.2727 971.068 90.0909 975.341 91.7273C979.614 93.3636 983.265 95.7424 986.295 98.8636C989.326 101.955 991.659 105.712 993.295 110.136C994.932 114.561 995.75 119.545 995.75 125.091V130.909H933.386V117.091H972.659C972.629 115.091 972.114 113.333 971.114 111.818C970.144 110.273 968.826 109.076 967.159 108.227C965.523 107.348 963.659 106.909 961.568 106.909C959.538 106.909 957.674 107.348 955.977 108.227C954.28 109.076 952.917 110.258 951.886 111.773C950.886 113.288 950.356 115.061 950.295 117.091V132C950.295 134.242 950.765 136.242 951.705 138C952.644 139.758 953.992 141.136 955.75 142.136C957.508 143.136 959.629 143.636 962.114 143.636C963.841 143.636 965.417 143.394 966.841 142.909C968.295 142.424 969.538 141.727 970.568 140.818C971.598 139.879 972.356 138.758 972.841 137.455H995.75C994.962 142.303 993.098 146.515 990.159 150.091C987.22 153.636 983.326 156.394 978.477 158.364C973.659 160.303 968.023 161.273 961.568 161.273ZM1005.99 90.1818H1031.08V162.364C1031.08 168.485 1029.79 173.273 1027.22 176.727C1024.67 180.182 1021.09 182.621 1016.49 184.045C1011.88 185.47 1006.5 186.182 1000.35 186.182C999.443 186.182 998.61 186.167 997.852 186.136C997.064 186.106 996.201 186.061 995.261 186V167.455C995.867 167.515 996.398 167.561 996.852 167.591C997.277 167.621 997.716 167.636 998.17 167.636C1001.17 167.636 1003.22 167.167 1004.31 166.227C1005.43 165.318 1005.99 163.848 1005.99 161.818V90.1818ZM1018.53 82.9091C1015.14 82.9091 1012.23 81.7879 1009.81 79.5455C1007.38 77.303 1006.17 74.6061 1006.17 71.4545C1006.17 68.303 1007.38 65.6061 1009.81 63.3636C1012.23 61.1212 1015.14 60 1018.53 60C1021.96 60 1024.87 61.1212 1027.26 63.3636C1029.69 65.6061 1030.9 68.303 1030.9 71.4545C1030.9 74.6061 1029.69 77.303 1027.26 79.5455C1024.87 81.7879 1021.96 82.9091 1018.53 82.9091ZM1063.32 161.091C1058.86 161.091 1054.92 160.364 1051.5 158.909C1048.11 157.424 1045.44 155.182 1043.5 152.182C1041.56 149.182 1040.59 145.364 1040.59 140.727C1040.59 136.909 1041.24 133.652 1042.55 130.955C1043.85 128.227 1045.67 126 1048 124.273C1050.33 122.545 1053.05 121.227 1056.14 120.318C1059.26 119.409 1062.62 118.818 1066.23 118.545C1070.14 118.242 1073.27 117.879 1075.64 117.455C1078.03 117 1079.76 116.379 1080.82 115.591C1081.88 114.773 1082.41 113.697 1082.41 112.364V112.182C1082.41 110.364 1081.71 108.97 1080.32 108C1078.92 107.03 1077.14 106.545 1074.95 106.545C1072.56 106.545 1070.61 107.076 1069.09 108.136C1067.61 109.167 1066.71 110.758 1066.41 112.909H1043.32C1043.62 108.667 1044.97 104.758 1047.36 101.182C1049.79 97.5758 1053.32 94.697 1057.95 92.5455C1062.59 90.3636 1068.38 89.2727 1075.32 89.2727C1080.32 89.2727 1084.8 89.8636 1088.77 91.0455C1092.74 92.197 1096.12 93.8182 1098.91 95.9091C1101.7 97.9697 1103.82 100.394 1105.27 103.182C1106.76 105.939 1107.5 108.939 1107.5 112.182V160H1084.05V150.182H1083.5C1082.11 152.788 1080.41 154.894 1078.41 156.5C1076.44 158.106 1074.18 159.273 1071.64 160C1069.12 160.727 1066.35 161.091 1063.32 161.091ZM1071.5 145.273C1073.41 145.273 1075.2 144.879 1076.86 144.091C1078.56 143.303 1079.94 142.167 1081 140.682C1082.06 139.197 1082.59 137.394 1082.59 135.273V129.455C1081.92 129.727 1081.21 129.985 1080.45 130.227C1079.73 130.47 1078.94 130.697 1078.09 130.909C1077.27 131.121 1076.39 131.318 1075.45 131.5C1074.55 131.682 1073.59 131.848 1072.59 132C1070.65 132.303 1069.06 132.803 1067.82 133.5C1066.61 134.167 1065.7 135 1065.09 136C1064.52 136.97 1064.23 138.061 1064.23 139.273C1064.23 141.212 1064.91 142.697 1066.27 143.727C1067.64 144.758 1069.38 145.273 1071.5 145.273ZM1119.49 160V90.1818H1143.85V103.455H1144.58C1145.85 98.5455 1147.87 94.9545 1150.62 92.6818C1153.41 90.4091 1156.67 89.2727 1160.4 89.2727C1161.49 89.2727 1162.56 89.3636 1163.62 89.5455C1164.72 89.697 1165.76 89.9242 1166.76 90.2273V111.636C1165.52 111.212 1163.99 110.894 1162.17 110.682C1160.35 110.47 1158.79 110.364 1157.49 110.364C1155.03 110.364 1152.82 110.924 1150.85 112.045C1148.91 113.136 1147.38 114.682 1146.26 116.682C1145.14 118.652 1144.58 120.97 1144.58 123.636V160H1119.49ZM1204.44 161.273C1196.99 161.273 1190.56 159.848 1185.17 157C1179.81 154.121 1175.67 150 1172.76 144.636C1169.88 139.242 1168.44 132.788 1168.44 125.273C1168.44 118.061 1169.9 111.758 1172.81 106.364C1175.72 100.97 1179.82 96.7727 1185.12 93.7727C1190.43 90.7727 1196.69 89.2727 1203.9 89.2727C1209.17 89.2727 1213.94 90.0909 1218.22 91.7273C1222.49 93.3636 1226.14 95.7424 1229.17 98.8636C1232.2 101.955 1234.53 105.712 1236.17 110.136C1237.81 114.561 1238.62 119.545 1238.62 125.091V130.909H1176.26V117.091H1215.53C1215.5 115.091 1214.99 113.333 1213.99 111.818C1213.02 110.273 1211.7 109.076 1210.03 108.227C1208.4 107.348 1206.53 106.909 1204.44 106.909C1202.41 106.909 1200.55 107.348 1198.85 108.227C1197.16 109.076 1195.79 110.258 1194.76 111.773C1193.76 113.288 1193.23 115.061 1193.17 117.091V132C1193.17 134.242 1193.64 136.242 1194.58 138C1195.52 139.758 1196.87 141.136 1198.62 142.136C1200.38 143.136 1202.5 143.636 1204.99 143.636C1206.72 143.636 1208.29 143.394 1209.72 142.909C1211.17 142.424 1212.41 141.727 1213.44 140.818C1214.47 139.879 1215.23 138.758 1215.72 137.455H1238.62C1237.84 142.303 1235.97 146.515 1233.03 150.091C1230.09 153.636 1226.2 156.394 1221.35 158.364C1216.53 160.303 1210.9 161.273 1204.44 161.273ZM1273.95 120.727V160H1248.86V90.1818H1272.68V103.455H1273.41C1274.92 99.0303 1277.59 95.5606 1281.41 93.0455C1285.26 90.5303 1289.74 89.2727 1294.86 89.2727C1299.8 89.2727 1304.09 90.4091 1307.73 92.6818C1311.39 94.9242 1314.23 98.0151 1316.23 101.955C1318.26 105.894 1319.26 110.394 1319.23 115.455V160H1294.14V120.727C1294.17 117.273 1293.29 114.561 1291.5 112.591C1289.74 110.621 1287.29 109.636 1284.14 109.636C1282.08 109.636 1280.27 110.091 1278.73 111C1277.21 111.879 1276.05 113.152 1275.23 114.818C1274.41 116.455 1273.98 118.424 1273.95 120.727ZM1351.07 161.091C1346.61 161.091 1342.67 160.364 1339.25 158.909C1335.86 157.424 1333.19 155.182 1331.25 152.182C1329.31 149.182 1328.34 145.364 1328.34 140.727C1328.34 136.909 1328.99 133.652 1330.3 130.955C1331.6 128.227 1333.42 126 1335.75 124.273C1338.08 122.545 1340.8 121.227 1343.89 120.318C1347.01 119.409 1350.37 118.818 1353.98 118.545C1357.89 118.242 1361.02 117.879 1363.39 117.455C1365.78 117 1367.51 116.379 1368.57 115.591C1369.63 114.773 1370.16 113.697 1370.16 112.364V112.182C1370.16 110.364 1369.46 108.97 1368.07 108C1366.67 107.03 1364.89 106.545 1362.7 106.545C1360.31 106.545 1358.36 107.076 1356.84 108.136C1355.36 109.167 1354.46 110.758 1354.16 112.909H1331.07C1331.37 108.667 1332.72 104.758 1335.11 101.182C1337.54 97.5758 1341.07 94.697 1345.7 92.5455C1350.34 90.3636 1356.13 89.2727 1363.07 89.2727C1368.07 89.2727 1372.55 89.8636 1376.52 91.0455C1380.49 92.197 1383.87 93.8182 1386.66 95.9091C1389.45 97.9697 1391.57 100.394 1393.02 103.182C1394.51 105.939 1395.25 108.939 1395.25 112.182V160H1371.8V150.182H1371.25C1369.86 152.788 1368.16 154.894 1366.16 156.5C1364.19 158.106 1361.93 159.273 1359.39 160C1356.87 160.727 1354.1 161.091 1351.07 161.091ZM1359.25 145.273C1361.16 145.273 1362.95 144.879 1364.61 144.091C1366.31 143.303 1367.69 142.167 1368.75 140.682C1369.81 139.197 1370.34 137.394 1370.34 135.273V129.455C1369.67 129.727 1368.96 129.985 1368.2 130.227C1367.48 130.47 1366.69 130.697 1365.84 130.909C1365.02 131.121 1364.14 131.318 1363.2 131.5C1362.3 131.682 1361.34 131.848 1360.34 132C1358.4 132.303 1356.81 132.803 1355.57 133.5C1354.36 134.167 1353.45 135 1352.84 136C1352.27 136.97 1351.98 138.061 1351.98 139.273C1351.98 141.212 1352.66 142.697 1354.02 143.727C1355.39 144.758 1357.13 145.273 1359.25 145.273Z" fill="#3F83F8"/>
</svg>
